HIERARCHY
ROOT base
{
	OFFSET 0.0 0.0 0.0
	CHANNELS 6 Xposition Yposition Zposition Zrotation Yrotation Xrotation
	JOINT root
	{
		OFFSET 0 0 0
		CHANNELS 6 Xposition Yposition Zposition Zrotation Yrotation Xrotation
		JOINT chest
		{
			OFFSET 0 4.72302 0
			CHANNELS 3 Zrotation Yrotation Xrotation
			JOINT neck
			{
				OFFSET 0 4.47788 0
				CHANNELS 3 Zrotation Yrotation Xrotation
				End Site
				{
					OFFSET 0.0 0.0 0.0
				}
			}
			JOINT right_shoulder
			{
				OFFSET -0.481 4.87 3.6622
				CHANNELS 3 Zrotation Yrotation Xrotation
				JOINT right_elbow
				{
					OFFSET 0 -5.49576 0
					CHANNELS 3 Zrotation Yrotation Xrotation
					JOINT right_wrist
					{
						OFFSET 0 -5.17894 0
						CHANNELS 3 Zrotation Yrotation Xrotation
						End Site
						{
							OFFSET 0.0 0.0 0.0
						}
					}
				}
			}
			JOINT left_shoulder
			{
				OFFSET -0.481 4.87 -3.6622
				CHANNELS 3 Zrotation Yrotation Xrotation
				JOINT left_elbow
				{
					OFFSET 0 -5.49576 0
					CHANNELS 3 Zrotation Yrotation Xrotation
					JOINT left_wrist
					{
						OFFSET 0 -5.17894 0
						CHANNELS 3 Zrotation Yrotation Xrotation
						End Site
						{
							OFFSET 0.0 0.0 0.0
						}
					}
				}
			}
		}
		JOINT right_hip
		{
			OFFSET 0 0 1.69774
			CHANNELS 3 Zrotation Yrotation Xrotation
			JOINT right_knee
			{
				OFFSET 0 -8.43092 0
				CHANNELS 3 Zrotation Yrotation Xrotation
				JOINT right_ankle
				{
					OFFSET 0 -8.1974 0
					CHANNELS 3 Zrotation Yrotation Xrotation
					End Site
					{
						OFFSET 0.0 0.0 0.0
					}
				}
			}
		}
		JOINT left_hip
		{
			OFFSET 0 0 -1.69774
			CHANNELS 3 Zrotation Yrotation Xrotation
			JOINT left_knee
			{
				OFFSET 0 -8.43092 0
				CHANNELS 3 Zrotation Yrotation Xrotation
				JOINT left_ankle
				{
					OFFSET 0 -8.1974 0
					CHANNELS 3 Zrotation Yrotation Xrotation
					End Site
					{
						OFFSET 0.0 0.0 0.0
					}
				}
			}
		}
	}
	JOINT red_arrow
	{
		OFFSET 0 0 0
		CHANNELS 3 Zrotation Yrotation Xrotation
		End Site
		{
			OFFSET 0.0 0.0 0.0
		}
	}
	JOINT blue_arrow
	{
		OFFSET 0 0 0
		CHANNELS 3 Zrotation Yrotation Xrotation
		End Site
		{
			OFFSET 0.0 0.0 0.0
		}
	}
}
MOTION
Frames: 11
Frame Time: 0.0333333333333333
0 18.08466 0 0 0 0 0 0 0 0 -90 0 0 0 0 0 0 0 0 0 -90 0 0 0 0 0 0 0 0 90 0 0 0 0 0 0 0 0 0 0 0 0 0 0 0 0 0 0 0 0 0 0 0 0 0 0 0 0 0 0
-0.391670902073383 0 -0.00881900414824486 0 -0.922140659045165 0 0 17.9392084479332 0 -4.41622648861816 -2.48480834489337E-17 2.90049102523383 -0.651687917552721 0.122639811198547 0.802143320683062 -15.867431595818 -5.3258400066888 1.13278476067191 11.780960016575 -10.4202128632872 -13.0376181487238 12.0758359242851 0 0 0 0 0 10.5127743271198 -8.26841110794061 14.2447051859278 4.44249505505428 0 0 0 0 0 1.5992797614507 -1.61692902294779 -2.73729520863716 5.85850184807775E-05 0 0 -1.00054611818107 -8.18781931932832 1.6604789719046 2.68686396251308 -0.758648589423736 -1.5558276531979 0.000157168894562696 0 0 -6.95940677557462 9.42391553238766 -0.790297524433937 0 0 0 0 0 0
-0.718094748258591 0 -0.0318427517078817 0 -0.889616102373177 0 0 17.9314905285835 0 -5.49710647728007 0.615124790505637 2.45485025187268 -5.55842114322796 -0.845242326923769 2.18943863097508 -16.3179612737101 -7.89072574555734 2.06733148185653 13.1548619412553 -10.5894859857908 -26.9030848199836 3.86187390720301 0 0 0 0 0 5.07144035623223 -10.3316409547552 24.8541395169953 -0.0156774569324079 0 0 0 0 0 4.58389642269827 -2.39286123226325 -2.3487907138191 -0.0977296550174217 0 0 -3.98015630262558 -7.58941596195608 0.559651410874702 5.26421231508449 0.568473642774099 -1.01830297171652 0.00387129319163571 0 0 -8.44049934474543 6.90541451254375 -2.30921503526958 0 0 0 0 0 0
-1.18860030472279 0 -0.0985494432970881 0 -0.762573103582801 0 0 17.8171128511429 0 -8.67481044135244 2.38623571894035 2.24157078930357 -9.70744813848111 -1.56455064202016 3.93700019535425 -16.1238552064611 -11.2795980590445 3.61233903864592 11.3025106063163 -14.8146673803959 -43.0342672018688 -0.000847008594841457 0 0 0 0 0 -4.06376146314363 -8.34990667054913 36.9281757362551 -5.55578477536049E-07 0 0 0 0 0 9.01722941125818 -3.39214546588322 -2.63059414254893 0.00227994019850623 0 0 -2.6576310345839 -8.21874407750985 0.392694908911138 10.9470801560983 2.70617621020054 -1.52543936348182 0.00417227966806414 0 0 -8.66896779456102 4.22106486614882 -1.40917816516059 0 0 0 0 0 0
-1.69295928478241 0 -0.103908434510231 0 -0.551681627601336 0 0 17.678196811676 0 -11.730862584615 3.92351103920346 1.15823106897701 -14.5315975044652 -1.80399099006991 6.37579874829981 -15.2885389878498 -13.5189258452229 5.2789783796929 8.80902726066413 -23.0532645977009 -56.1016244362559 -0.0111668807128215 0 0 0 0 0 -11.7669933713681 -1.59968870300831 45.3947070328311 -0.000200907819032866 0 0 0 0 0 13.6759158118935 -4.88114419143784 -2.11430931447704 -0.441608308705981 0 0 -1.3684003949087 -8.29682034742569 0.0715627705856258 16.8482647486725 4.70595101875482 -1.33737548425913 0.0328857800383445 0 0 -9.00186260154645 1.78987345788444 0.0826249168672683 0 0 0 0 0 0
-2.27503353953362 0 -0.110049136355519 0 -0.302919219825449 0 0 17.6345527529716 0 -15.0307535973109 4.56547302912378 0.40372662529382 -19.2190373264228 -1.86114747350034 7.49019376090518 -14.4831980203214 -14.0546186322648 7.18484510034748 7.50426972453988 -32.2622682688802 -63.965127661905 -0.0700968373995591 0 0 0 0 0 -16.430230683932 8.40244023913948 49.189640631987 -0.00105461983193607 0 0 0 0 0 20.6277771558742 -6.70369391745534 -2.2287425727183 -3.97492549079777 0 0 -1.44138078692502 -6.85995385749073 0.01356934757656 24.0010770437983 7.10753792410589 -1.42184631579659 0.00116376018090704 0 0 -14.0561790500785 0.547856080303693 2.41832901645117 0 0 0 0 0 0
-2.9266586959362 0 -0.099261837080121 0 -0.0428035868921948 0 0 17.5367841720581 0 -18.7570496252637 4.68091860981467 -0.265870183374465 -23.4107996937915 -2.27420010819889 7.63013493908173 -12.5880771091227 -13.002365188509 8.47965046203259 5.22895926323602 -40.7114288268122 -64.4648311556284 -1.02179902194089E-05 0 0 0 0 0 -19.4743888697867 20.7424685400357 48.9890837397758 -9.26514712927286E-07 0 0 0 0 0 30.6606685026647 -8.04019915848149 -3.02528276656318 -12.2790912549273 0 0 -0.38313020616255 -3.88443644127822 0.115820115198296 33.9981160507088 8.84321300217836 -0.759279365425527 -3.8588408763247 0 0 -18.7155238483641 0.374384691366885 4.59642600325047 0 0 0 0 0 0
-3.50695776343346 0 -0.0787276275455952 0 0.203497646203159 0 0 17.3005607366562 0 -22.0232889325901 4.339606517482 -1.09143984484107 -26.2991349909298 -2.60730987503398 7.36667472074275 -9.86024895715091 -10.9157528223403 8.65159843276431 -0.89120711702622 -47.1499145304745 -56.8167304899668 -8.83398401221118E-07 0 0 0 0 0 -22.0524131042768 33.9744388779029 45.3278160183778 -0.0210676017680386 0 0 0 0 0 41.3712925979499 -7.11126364518669 -3.66504968254946 -23.4383747029782 0 0 1.10064936417123 -1.34535131893278 0.569256474431304 45.1395136898424 8.86643734714656 0.927527432761987 -13.0072329629066 0 0 -20.4589917899031 -0.155951641335054 3.89359622514103 0 0 0 0 0 0
-4.01374151706696 0 -0.0866562489420175 0 0.38996704766113 0 0 16.9020968675613 0 -25.0441110034084 3.21055388822611 -1.71851391439713 -27.4312786171912 -2.49180722147586 6.92714214121388 -5.89346544845699 -8.65046757254939 6.89939571251109 -9.88050707066524 -50.1422554854652 -44.1774826712409 -4.73587034735913E-07 0 0 0 0 0 -24.0404829824125 45.4338403452995 38.7639483447226 -2.52387527615685E-06 0 0 0 0 0 52.6216022369379 -4.2437014005879 -3.36690889621067 -35.9480676584371 0 0 1.14450909417624 -0.567748721493241 1.26698882529126 55.834249831694 7.60368735495591 2.65322720534104 -24.0843398437322 0 0 -17.5300654948673 0.0516810571782812 1.82262872981422 0 0 0 0 0 0
-4.40416257977486 0 -0.111508224904537 0 0.481846106146493 0 0 16.3201412916183 0 -27.094854539456 1.55421753897431 -1.99407241582407 -27.5836333433163 -2.0409207853189 6.37524662910572 -2.12634195540896 -6.66747001650782 3.91813824259776 -18.8903033968244 -47.2265585548727 -29.5434556651816 -0.00143219122183092 0 0 0 0 0 -23.9512019773688 53.0158491549706 31.501152714341 -5.20353096550154E-07 0 0 0 0 0 63.1214940489875 -0.971946093174338 -1.93269344384586 -48.932885648035 0 0 0.30850717540324 -0.865075124465675 2.30075075151095 64.913372660271 5.36817657710192 4.22794991254182 -35.5933008027574 0 0 -10.9984157982352 0.323000885759007 0.96233963058454 0 0 0 0 0 0
-4.65609503984451 0 -0.169134411215782 0 0.460090669963433 0 0 15.5264057040215 0 -28.0141612802781 -0.36492271224207 -1.66701457652608 -26.1322854886624 -1.27836031123222 5.60752751194187 1.13942315404862 -4.981414678252 0.776799712022206 -22.6839328188453 -40.6241591212988 -18.7648164415677 -0.226284167202522 0 0 0 0 0 -17.7943122940117 58.8484219181682 27.6097319917582 -0.0112747221627503 0 0 0 0 0 72.284370584201 2.26907329349203 0.324261925209279 -61.099252314674 0 0 1.26367130187407 -0.878896162205793 1.72220989538068 72.7229200437733 3.19297442557238 5.42044153448364 -47.7604563562456 0 0 -2.75417000804919 0.895475997709251 -0.0746914953135106 0 0 0 0 0 0
